<?xml version="1.0" encoding="utf-8"?>
<!-- Generator: Adobe Illustrator 16.0.0, SVG Export Plug-In . SVG Version: 6.00 Build 0)  -->
<!DOCTYPE svg PUBLIC "-//W3C//DTD SVG 1.1//EN" "http://www.w3.org/Graphics/SVG/1.1/DTD/svg11.dtd">
<svg version="1.1" id="Capa_1" xmlns="http://www.w3.org/2000/svg" xmlns:xlink="http://www.w3.org/1999/xlink" x="0px" y="0px"
	 width="64px" height="64px" viewBox="0 0 64 64" enable-background="new 0 0 64 64" xml:space="preserve">
<path opacity="0.2" fill="#93B4D1" d="M27.878,63.406l35.186-18.418c1.389-0.728,1.215-1.998-0.389-2.838L42.707,31.696
	c-1.604-0.839-4.032-0.931-5.421-0.203L2.1,49.911c-1.39,0.728-1.215,1.998,0.389,2.838l19.969,10.453
	C24.062,64.042,26.489,64.133,27.878,63.406z"/>
<path fill="#2873AC" d="M27.934,62.747l34.764-18.199c0.612-0.32,0.917-0.747,0.927-1.196c0-0.014,0-1.546,0-1.561
	c-0.011-0.545-0.456,0.401-1.311-0.047l-19.73-10.328c-1.585-0.83-3.983-0.92-5.356-0.202L2.462,49.414
	c-0.458,0.24-0.791-0.779-0.909-0.455c-0.039,0.108-0.014,1.537-0.017,1.648c-0.013,0.558,0.432,1.149,1.311,1.61l19.73,10.328
	C24.163,63.375,26.561,63.465,27.934,62.747z"/>
<path fill="#D2EAF9" d="M27.934,61.215l34.764-18.199c1.373-0.719,1.201-1.975-0.384-2.804l-19.73-10.327
	c-1.585-0.831-3.983-0.92-5.356-0.201L2.462,47.881c-1.372,0.719-1.2,1.975,0.385,2.805l19.73,10.327
	C24.163,61.843,26.561,61.933,27.934,61.215z"/>
<path opacity="0.5" fill="#4292CF" d="M27.934,62.747c-1.373,0.718-3.771,0.628-5.356-0.202v-1.533
	c1.584,0.83,3.983,0.92,5.356,0.202V62.747z"/>
<path fill="#4292CF" d="M27.934,61.215l34.764-18.199c0.665-0.348,0.963-0.82,0.919-1.311c0.005,0.024,0.007,0.053,0.008,0.086
	c0,0.015,0,1.548,0,1.562c-0.011,0.449-0.315,0.876-0.927,1.196L27.934,62.747V61.215z"/>
<path fill="#FFFFFF" d="M2.847,50.425l19.73,10.328c1.584,0.831,3.983,0.92,5.356,0.202l34.764-18.198
	c0.569-0.299,0.869-0.688,0.917-1.103c0.071,0.508-0.229,1.003-0.917,1.363L27.934,61.215c-1.373,0.718-3.771,0.628-5.356-0.202
	L2.847,50.686c-0.927-0.486-1.367-1.117-1.3-1.701C1.618,49.49,2.057,50.011,2.847,50.425z"/>
<path opacity="0.3" fill="#FFFFFF" d="M35.847,54.857l12.373-6.477c0.248-0.131,0.216-0.356-0.07-0.507l-4.645-2.431
	c-0.286-0.15-0.719-0.167-0.966-0.037l-12.373,6.477c-0.248,0.13-0.217,0.356,0.069,0.506l4.645,2.433
	C35.166,54.971,35.599,54.987,35.847,54.857z"/>
<path fill="#A8CEED" d="M48.15,48.14l-4.645-2.431c-0.286-0.15-0.719-0.167-0.966-0.037l-12.373,6.477
	c-0.051,0.026-0.087,0.058-0.115,0.091c-0.093-0.127-0.06-0.266,0.115-0.357l12.373-6.477c0.247-0.13,0.68-0.113,0.966,0.037
	l4.645,2.431c0.228,0.119,0.291,0.286,0.184,0.416C48.294,48.236,48.235,48.184,48.15,48.14z"/>
<path fill="#76B5E3" d="M39.494,31.509c-0.27-0.141-0.708-0.14-0.979,0.002l-2.132,1.116c-0.271,0.143-0.272,0.372-0.003,0.513
	c0.27,0.142,0.708,0.141,0.979-0.001l2.132-1.117C39.762,31.88,39.764,31.65,39.494,31.509z M35.843,33.42
	c-0.269-0.141-0.708-0.14-0.979,0.002l-1.01,0.528c-0.271,0.143-0.272,0.372-0.002,0.514c0.269,0.141,0.708,0.14,0.979-0.002
	l1.01-0.529C36.111,33.79,36.112,33.562,35.843,33.42z M33.314,34.744c-0.27-0.141-0.708-0.141-0.979,0.002l-1.01,0.528
	c-0.271,0.142-0.272,0.371-0.003,0.512c0.27,0.142,0.708,0.141,0.979-0.001l1.01-0.529C33.583,35.114,33.584,34.885,33.314,34.744z
	 M30.786,36.068c-0.269-0.142-0.708-0.141-0.979,0.001l-1.01,0.529c-0.271,0.143-0.272,0.371-0.003,0.512
	c0.27,0.142,0.708,0.141,0.979-0.001l1.01-0.529C31.054,36.438,31.055,36.208,30.786,36.068z M28.257,37.392
	c-0.269-0.141-0.708-0.141-0.978,0.002l-1.01,0.527c-0.271,0.143-0.272,0.372-0.003,0.513c0.269,0.142,0.708,0.141,0.979-0.001
	l1.01-0.529C28.525,37.762,28.526,37.532,28.257,37.392z M25.729,38.715c-0.269-0.141-0.708-0.141-0.979,0.001l-1.01,0.529
	c-0.271,0.143-0.272,0.371-0.003,0.513c0.27,0.141,0.707,0.14,0.979-0.002l1.01-0.528C25.997,39.085,25.998,38.856,25.729,38.715z
	 M23.2,40.038c-0.269-0.141-0.708-0.14-0.979,0.002l-1.01,0.528c-0.271,0.142-0.273,0.372-0.003,0.513
	c0.27,0.141,0.708,0.141,0.979-0.001l1.009-0.529C23.468,40.409,23.47,40.179,23.2,40.038z M20.671,41.362
	c-0.27-0.142-0.708-0.141-0.979,0.001l-1.01,0.529c-0.271,0.142-0.272,0.371-0.002,0.512c0.269,0.142,0.708,0.141,0.979-0.001
	l1.01-0.528C20.94,41.732,20.941,41.503,20.671,41.362z M18.143,42.686c-0.27-0.141-0.708-0.141-0.979,0.001l-1.01,0.529
	c-0.271,0.143-0.272,0.372-0.002,0.513c0.27,0.141,0.707,0.14,0.979-0.002l1.01-0.528C18.412,43.056,18.413,42.827,18.143,42.686z
	 M15.614,44.01c-0.269-0.141-0.708-0.141-0.979,0.001l-1.01,0.529c-0.271,0.142-0.273,0.372-0.003,0.512
	c0.27,0.141,0.708,0.14,0.979-0.002l1.009-0.528C15.882,44.38,15.884,44.15,15.614,44.01z M13.085,45.333
	c-0.27-0.141-0.707-0.141-0.979,0.002l-1.01,0.528c-0.271,0.142-0.272,0.372-0.002,0.513c0.269,0.142,0.708,0.141,0.979-0.002
	l1.01-0.529C13.354,45.704,13.355,45.474,13.085,45.333z M10.558,46.657c-0.27-0.141-0.708-0.14-0.979,0.001l-1.01,0.529
	c-0.271,0.142-0.273,0.372-0.003,0.513c0.27,0.141,0.708,0.141,0.979-0.002l1.01-0.528C10.826,47.027,10.828,46.798,10.558,46.657z
	 M7.977,48.008c-0.27-0.141-0.708-0.14-0.979,0.002l-1.01,0.528c-0.271,0.142-0.272,0.371-0.002,0.513
	c0.27,0.141,0.708,0.141,0.979-0.002l1.011-0.528C8.244,48.379,8.246,48.148,7.977,48.008z M41.769,32.699l-0.869-0.454
	c-0.306-0.16-0.805-0.16-1.114,0.002l-0.875,0.457c-0.308,0.162-0.309,0.423-0.002,0.584l0.869,0.455
	c0.307,0.16,0.805,0.159,1.114-0.002l0.875-0.458C42.074,33.122,42.075,32.86,41.769,32.699z M38.362,35.063l0.875-0.457
	c0.308-0.161,0.31-0.423,0.003-0.583l-0.868-0.455c-0.307-0.161-0.806-0.16-1.115,0.002l-0.875,0.458
	c-0.308,0.161-0.31,0.422-0.003,0.583l0.869,0.455C37.555,35.227,38.054,35.226,38.362,35.063z M36.711,35.347l-0.869-0.455
	c-0.307-0.161-0.806-0.16-1.115,0.002l-0.874,0.457c-0.309,0.162-0.31,0.423-0.003,0.583l0.868,0.455
	c0.307,0.161,0.806,0.16,1.115-0.002l0.875-0.458C37.017,35.769,37.019,35.508,36.711,35.347z M34.183,36.671l-0.869-0.455
	c-0.307-0.16-0.806-0.16-1.114,0.002l-0.875,0.458c-0.309,0.162-0.31,0.423-0.003,0.583l0.869,0.454
	c0.306,0.161,0.805,0.16,1.114-0.001l0.874-0.457C34.488,37.093,34.49,36.831,34.183,36.671z M28.793,38.583l0.869,0.455
	c0.307,0.161,0.805,0.16,1.114-0.002l0.875-0.458c0.308-0.161,0.31-0.422,0.002-0.582l-0.868-0.455
	c-0.308-0.161-0.806-0.16-1.114,0.001L28.796,38C28.488,38.16,28.487,38.422,28.793,38.583z M26.265,39.905l0.868,0.455
	c0.307,0.161,0.806,0.161,1.114-0.001l0.875-0.458c0.309-0.161,0.31-0.423,0.003-0.584l-0.869-0.455
	c-0.307-0.16-0.805-0.159-1.114,0.002l-0.874,0.457C25.959,39.484,25.958,39.745,26.265,39.905z M23.736,41.229l0.869,0.455
	c0.307,0.161,0.806,0.16,1.115-0.002l0.874-0.457c0.309-0.163,0.31-0.424,0.003-0.584l-0.869-0.455
	c-0.307-0.16-0.806-0.159-1.114,0.002l-0.875,0.458C23.431,40.809,23.43,41.069,23.736,41.229z M21.208,42.553l0.869,0.456
	c0.307,0.159,0.806,0.159,1.114-0.002l0.875-0.458c0.309-0.161,0.31-0.423,0.003-0.583L23.2,41.51
	c-0.307-0.161-0.806-0.16-1.114,0.002l-0.875,0.458C20.902,42.132,20.901,42.393,21.208,42.553z M18.679,43.877l0.87,0.455
	c0.306,0.16,0.805,0.159,1.114-0.002l0.875-0.458c0.308-0.162,0.31-0.422,0.003-0.583l-0.869-0.454
	c-0.307-0.162-0.806-0.16-1.114,0.002l-0.874,0.457C18.374,43.455,18.372,43.716,18.679,43.877z M16.151,45.2l0.869,0.455
	c0.306,0.16,0.805,0.159,1.114-0.002l0.875-0.457c0.308-0.162,0.31-0.424,0.003-0.584l-0.869-0.455
	c-0.307-0.16-0.806-0.159-1.114,0.002l-0.875,0.458C15.845,44.779,15.844,45.039,16.151,45.2z M16.482,45.937l-0.869-0.455
	c-0.307-0.161-0.805-0.16-1.114,0.002l-0.874,0.458c-0.31,0.162-0.311,0.423-0.004,0.583l0.869,0.455
	c0.307,0.16,0.806,0.159,1.114-0.002l0.875-0.458C16.788,46.357,16.789,46.097,16.482,45.937z M11.093,47.848l0.869,0.455
	c0.306,0.161,0.806,0.159,1.114-0.002l0.875-0.458c0.308-0.162,0.31-0.423,0.003-0.583l-0.87-0.455
	c-0.306-0.161-0.805-0.159-1.114,0.002l-0.875,0.458C10.788,47.426,10.786,47.687,11.093,47.848z M7.39,49.786l0.87,0.455
	c0.306,0.161,0.805,0.161,1.114-0.001l1.996-1.046c0.309-0.162,0.311-0.423,0.004-0.584l-0.869-0.454
	c-0.307-0.161-0.806-0.16-1.115,0.002l-1.996,1.045C7.084,49.365,7.083,49.626,7.39,49.786z M44.11,33.926l-0.869-0.455
	c-0.307-0.16-0.806-0.159-1.114,0.001l-1.997,1.046c-0.309,0.162-0.311,0.423-0.003,0.584l0.869,0.454
	c0.307,0.161,0.806,0.16,1.114-0.002l1.996-1.045C44.415,34.347,44.417,34.087,44.11,33.926z M40.46,35.837l-0.87-0.455
	c-0.306-0.161-0.805-0.16-1.114,0.002l-0.875,0.457c-0.308,0.162-0.31,0.423-0.003,0.583l0.869,0.455
	c0.307,0.16,0.806,0.159,1.114-0.002l0.875-0.458C40.765,36.259,40.766,35.998,40.46,35.837z M37.927,37.744
	c0.309-0.162,0.311-0.423,0.004-0.583l-0.869-0.455c-0.307-0.161-0.806-0.16-1.114,0.002l-0.875,0.458
	c-0.308,0.161-0.31,0.423-0.004,0.583l0.87,0.455c0.307,0.16,0.805,0.159,1.114-0.002L37.927,37.744z M35.399,39.067
	c0.309-0.161,0.31-0.422,0.004-0.583l-0.869-0.455c-0.307-0.16-0.806-0.159-1.114,0.002l-0.874,0.458
	c-0.309,0.161-0.311,0.422-0.004,0.583l0.869,0.455c0.307,0.16,0.806,0.159,1.114-0.002L35.399,39.067z M30.891,39.355l-0.875,0.458
	c-0.308,0.162-0.31,0.423-0.003,0.583l0.87,0.455c0.306,0.16,0.805,0.16,1.114-0.001l0.875-0.458
	c0.309-0.162,0.311-0.423,0.003-0.583l-0.869-0.456C31.699,39.192,31.199,39.194,30.891,39.355z M28.417,40.65l-0.983,0.514
	c-0.278,0.146-0.28,0.382-0.003,0.528l0.976,0.51c0.277,0.146,0.728,0.145,1.007-0.001l0.982-0.515
	c0.278-0.146,0.28-0.382,0.003-0.527l-0.976-0.51C29.146,40.503,28.695,40.504,28.417,40.65z M25.888,41.975l-0.982,0.514
	c-0.279,0.146-0.281,0.382-0.003,0.527l0.976,0.511c0.277,0.145,0.727,0.144,1.006-0.002l0.982-0.514
	c0.279-0.146,0.281-0.383,0.003-0.527l-0.976-0.511C26.618,41.828,26.167,41.829,25.888,41.975z M23.359,43.297l-0.981,0.515
	c-0.279,0.146-0.28,0.382-0.003,0.527l0.976,0.51c0.277,0.145,0.728,0.145,1.007-0.001l0.981-0.514
	c0.279-0.146,0.28-0.382,0.003-0.527l-0.977-0.511C24.088,43.15,23.638,43.151,23.359,43.297z M20.83,44.621l-0.982,0.514
	c-0.279,0.146-0.28,0.383-0.003,0.527l0.976,0.511c0.277,0.145,0.729,0.145,1.007-0.002l0.982-0.514
	c0.279-0.146,0.28-0.382,0.003-0.526l-0.976-0.512C21.56,44.475,21.109,44.476,20.83,44.621z M18.302,45.945l-0.982,0.513
	c-0.279,0.147-0.28,0.382-0.003,0.528l0.977,0.511c0.277,0.145,0.728,0.144,1.006-0.001l0.982-0.515
	c0.279-0.146,0.281-0.382,0.003-0.527l-0.976-0.51C19.032,45.798,18.581,45.799,18.302,45.945z M16.771,48.819l0.981-0.514
	c0.279-0.146,0.281-0.382,0.003-0.527l-0.976-0.511c-0.277-0.145-0.727-0.144-1.006,0.002l-0.982,0.515
	c-0.279,0.146-0.28,0.381-0.003,0.525l0.976,0.512C16.041,48.966,16.492,48.965,16.771,48.819z M14.242,50.143l0.982-0.514
	c0.279-0.146,0.28-0.382,0.003-0.527l-0.976-0.511c-0.277-0.145-0.728-0.144-1.007,0.002l-0.981,0.514
	c-0.279,0.146-0.281,0.382-0.003,0.527l0.976,0.51C13.512,50.29,13.964,50.289,14.242,50.143z M9.678,50.984l0.976,0.511
	c0.277,0.145,0.729,0.144,1.007-0.002l0.981-0.514c0.279-0.146,0.281-0.382,0.003-0.527l-0.976-0.511
	c-0.277-0.145-0.729-0.145-1.008,0.002l-0.981,0.515C9.402,50.604,9.401,50.839,9.678,50.984z M46.506,35.18l-0.976-0.511
	c-0.278-0.145-0.728-0.144-1.006,0.002l-3.171,1.659c-0.279,0.146-0.28,0.383-0.003,0.527l0.976,0.511
	c0.277,0.145,0.729,0.144,1.007-0.002l3.17-1.66C46.782,35.561,46.783,35.324,46.506,35.18z M41.789,37.648l-0.976-0.51
	c-0.277-0.146-0.729-0.145-1.007,0.001l-0.982,0.514c-0.279,0.146-0.28,0.382-0.003,0.527l0.976,0.511
	c0.278,0.146,0.729,0.145,1.008-0.001l0.982-0.515C42.065,38.03,42.066,37.794,41.789,37.648z M39.26,38.972l-0.976-0.51
	c-0.277-0.145-0.728-0.145-1.007,0.001l-0.981,0.514c-0.279,0.147-0.28,0.382-0.003,0.527l0.976,0.512
	c0.277,0.146,0.728,0.144,1.007-0.002l0.981-0.514C39.536,39.354,39.537,39.118,39.26,38.972z M36.732,40.296l-0.976-0.51
	c-0.277-0.145-0.728-0.145-1.006,0.001l-0.983,0.514c-0.279,0.146-0.28,0.382-0.002,0.528l0.976,0.51
	c0.277,0.146,0.728,0.145,1.007-0.001l0.982-0.515C37.007,40.678,37.009,40.441,36.732,40.296z M33.218,42.661l0.983-0.515
	c0.279-0.146,0.28-0.382,0.002-0.526l-0.976-0.511c-0.277-0.145-0.728-0.145-1.007,0.002l-0.982,0.513
	c-0.279,0.146-0.28,0.383-0.003,0.527l0.976,0.512C32.488,42.808,32.939,42.807,33.218,42.661z M30.689,43.985l0.982-0.515
	c0.279-0.146,0.28-0.382,0.003-0.527l-0.976-0.511c-0.277-0.146-0.727-0.145-1.006,0.002l-0.981,0.514
	c-0.279,0.147-0.28,0.382-0.003,0.527l0.976,0.511C29.96,44.132,30.411,44.131,30.689,43.985z M28.161,45.308l0.982-0.513
	c0.279-0.147,0.28-0.382,0.003-0.527l-0.976-0.512c-0.277-0.145-0.728-0.144-1.007,0.002l-0.982,0.515
	c-0.279,0.146-0.28,0.382-0.003,0.526l0.976,0.511C27.431,45.455,27.882,45.455,28.161,45.308z M25.632,46.632l0.982-0.514
	c0.279-0.146,0.281-0.382,0.003-0.527l-0.976-0.511c-0.277-0.145-0.729-0.145-1.007,0.001l-0.982,0.515
	c-0.279,0.145-0.28,0.381-0.003,0.527l0.977,0.51C24.903,46.779,25.354,46.778,25.632,46.632z M23.104,47.956l0.981-0.513
	c0.279-0.147,0.281-0.383,0.003-0.528l-0.976-0.511c-0.277-0.145-0.727-0.144-1.006,0.002l-0.982,0.515
	c-0.279,0.146-0.28,0.381-0.003,0.526l0.976,0.511C22.374,48.103,22.825,48.102,23.104,47.956z M20.575,49.279l0.982-0.515
	c0.278-0.146,0.28-0.381,0.003-0.526l-0.976-0.511c-0.277-0.145-0.728-0.144-1.007,0.002l-0.982,0.514
	c-0.279,0.146-0.281,0.382-0.003,0.527l0.976,0.51C19.845,49.426,20.296,49.425,20.575,49.279z M19.032,49.562l-0.976-0.511
	c-0.277-0.145-0.728-0.144-1.007,0.002l-0.981,0.514c-0.279,0.146-0.281,0.382-0.003,0.528l0.976,0.51
	c0.277,0.145,0.728,0.145,1.006-0.002l0.982-0.514C19.308,49.942,19.31,49.707,19.032,49.562z M12.021,52.21l0.976,0.511
	c0.277,0.145,0.728,0.145,1.007-0.001l2.497-1.308c0.279-0.146,0.28-0.382,0.003-0.526l-0.976-0.511
	c-0.277-0.146-0.728-0.145-1.007,0.002l-2.497,1.307C11.745,51.829,11.744,52.065,12.021,52.21z M48.839,36.401l-0.846-0.443
	c-0.313-0.164-0.822-0.163-1.138,0.002l-4.498,2.355c-0.315,0.166-0.317,0.432-0.003,0.595l0.845,0.442
	c0.313,0.165,0.823,0.164,1.137-0.001l4.499-2.354C49.15,36.831,49.152,36.565,48.839,36.401z M42.663,39.634l-0.846-0.443
	c-0.313-0.163-0.822-0.162-1.137,0.002l-0.851,0.446c-0.315,0.165-0.317,0.432-0.003,0.595l0.846,0.443
	c0.313,0.164,0.821,0.163,1.137-0.002l0.851-0.445C42.975,40.064,42.976,39.798,42.663,39.634z M40.134,40.957l-0.845-0.442
	c-0.313-0.165-0.823-0.164-1.138,0.001L37.3,40.962c-0.314,0.165-0.316,0.431-0.003,0.595l0.846,0.444
	c0.314,0.163,0.823,0.162,1.138-0.003l0.851-0.445C40.446,41.388,40.447,41.121,40.134,40.957z M37.605,42.281l-0.846-0.442
	c-0.313-0.165-0.822-0.163-1.137,0.002l-0.851,0.445c-0.315,0.166-0.316,0.432-0.003,0.595l0.845,0.443
	c0.313,0.164,0.823,0.164,1.137-0.002l0.851-0.445C37.917,42.711,37.919,42.445,37.605,42.281z M35.077,43.605l-0.846-0.443
	c-0.313-0.164-0.823-0.163-1.137,0.002l-0.852,0.445c-0.315,0.165-0.316,0.432-0.003,0.595l0.846,0.443
	c0.313,0.164,0.822,0.163,1.137-0.002l0.851-0.445C35.389,44.035,35.39,43.769,35.077,43.605z M32.549,44.929l-0.846-0.443
	c-0.313-0.164-0.822-0.164-1.137,0.002l-0.852,0.446c-0.314,0.165-0.316,0.432-0.003,0.595l0.845,0.443
	c0.313,0.164,0.823,0.162,1.138-0.002l0.852-0.446C32.86,45.358,32.862,45.092,32.549,44.929z M30.02,46.252l-0.846-0.442
	c-0.313-0.165-0.821-0.164-1.137,0.001l-0.851,0.446c-0.315,0.165-0.317,0.431-0.003,0.596l0.846,0.442
	c0.313,0.164,0.822,0.163,1.137-0.001l0.851-0.446C30.332,46.682,30.333,46.416,30.02,46.252z M27.491,47.576l-0.845-0.443
	c-0.313-0.164-0.822-0.163-1.138,0.001l-0.851,0.445c-0.315,0.165-0.317,0.432-0.004,0.596l0.847,0.442
	c0.313,0.164,0.822,0.163,1.137-0.002l0.851-0.445C27.804,48.006,27.805,47.739,27.491,47.576z M24.963,48.898l-0.846-0.442
	c-0.313-0.164-0.822-0.163-1.138,0.002l-0.851,0.445c-0.315,0.166-0.316,0.432-0.004,0.596l0.846,0.442
	c0.313,0.164,0.823,0.164,1.138-0.002l0.851-0.445C25.274,49.33,25.276,49.063,24.963,48.898z M22.435,50.223l-0.847-0.443
	c-0.313-0.164-0.823-0.163-1.137,0.002L19.6,50.227c-0.315,0.166-0.316,0.432-0.003,0.596l0.846,0.442
	c0.313,0.164,0.823,0.163,1.137-0.002l0.851-0.444C22.746,50.653,22.747,50.387,22.435,50.223z M19.906,51.546l-0.846-0.441
	c-0.313-0.165-0.823-0.164-1.137,0.001l-0.852,0.445c-0.315,0.166-0.316,0.432-0.003,0.596l0.846,0.443
	c0.313,0.163,0.822,0.162,1.137-0.002l0.851-0.446C20.217,51.978,20.219,51.711,19.906,51.546z M14.483,53.5l0.845,0.443
	c0.314,0.164,0.823,0.163,1.138-0.002l0.852-0.446c0.314-0.165,0.316-0.431,0.003-0.595l-0.845-0.443
	c-0.313-0.164-0.823-0.164-1.137,0.002l-0.852,0.445C14.172,53.069,14.17,53.336,14.483,53.5z M47.221,38.814l0.845,0.443
	c0.313,0.164,0.823,0.163,1.137-0.002l1.974-1.033c0.314-0.166,0.316-0.432,0.003-0.596l-0.846-0.442
	c-0.313-0.164-0.822-0.163-1.137,0.001l-1.973,1.034C46.909,38.384,46.908,38.65,47.221,38.814z M44.692,40.138l0.847,0.443
	c0.313,0.164,0.821,0.163,1.137-0.001l0.851-0.445c0.315-0.166,0.317-0.432,0.003-0.596l-0.846-0.443
	c-0.313-0.164-0.822-0.162-1.137,0.003l-0.851,0.445C44.38,39.708,44.379,39.974,44.692,40.138z M42.164,41.461l0.846,0.443
	c0.313,0.164,0.822,0.163,1.138-0.002l0.851-0.446c0.315-0.164,0.316-0.431,0.003-0.595l-0.846-0.442
	c-0.313-0.165-0.822-0.163-1.137,0.002l-0.851,0.445C41.853,41.031,41.851,41.298,42.164,41.461z M24.463,50.727l0.846,0.442
	c0.313,0.165,0.823,0.164,1.137-0.001l16.023-8.387c0.315-0.165,0.316-0.431,0.003-0.596l-0.846-0.442
	c-0.313-0.164-0.822-0.163-1.137,0.001l-16.022,8.388C24.152,50.296,24.151,50.563,24.463,50.727z M21.935,52.051l0.845,0.443
	c0.313,0.164,0.823,0.163,1.138-0.002l0.851-0.446c0.315-0.165,0.317-0.431,0.004-0.595l-0.846-0.443
	c-0.313-0.163-0.823-0.163-1.137,0.002l-0.852,0.445C21.624,51.62,21.623,51.887,21.935,52.051z M19.406,53.374l0.846,0.444
	c0.313,0.163,0.823,0.162,1.137-0.003l0.852-0.445c0.314-0.166,0.316-0.433,0.004-0.596l-0.846-0.442
	c-0.313-0.165-0.823-0.164-1.138,0.001l-0.85,0.446C19.095,52.944,19.093,53.211,19.406,53.374z M16.825,54.726l0.846,0.443
	c0.313,0.164,0.822,0.163,1.137-0.002l0.851-0.445c0.315-0.166,0.317-0.433,0.004-0.596l-0.845-0.443
	c-0.313-0.164-0.823-0.163-1.138,0.002l-0.852,0.445C16.514,54.295,16.512,54.562,16.825,54.726z"/>
<path fill="#A8CEED" d="M39.494,31.296c-0.27-0.142-0.708-0.141-0.979,0.001l-2.132,1.117c-0.271,0.142-0.272,0.37-0.003,0.512
	c0.27,0.141,0.708,0.14,0.979-0.002l2.132-1.116C39.762,31.666,39.764,31.437,39.494,31.296z M35.843,33.207
	c-0.269-0.141-0.708-0.14-0.979,0.002l-1.01,0.529c-0.271,0.142-0.272,0.371-0.002,0.512c0.269,0.141,0.708,0.141,0.979-0.001
	l1.01-0.529C36.111,33.577,36.112,33.348,35.843,33.207z M33.314,34.53c-0.27-0.141-0.708-0.14-0.979,0.002l-1.01,0.528
	c-0.271,0.142-0.272,0.372-0.003,0.512c0.27,0.142,0.708,0.141,0.979-0.001l1.01-0.529C33.583,34.9,33.584,34.672,33.314,34.53z
	 M30.786,35.854c-0.269-0.141-0.708-0.141-0.979,0.002l-1.01,0.528c-0.271,0.142-0.272,0.372-0.003,0.512
	c0.27,0.142,0.708,0.141,0.979-0.001l1.01-0.529C31.054,36.225,31.055,35.995,30.786,35.854z M28.257,37.178
	c-0.269-0.142-0.708-0.141-0.978,0.001l-1.01,0.53c-0.271,0.142-0.272,0.37-0.003,0.512c0.269,0.141,0.708,0.14,0.979-0.002
	l1.01-0.528C28.525,37.548,28.526,37.319,28.257,37.178z M25.729,38.501c-0.269-0.141-0.708-0.14-0.979,0.002l-1.01,0.528
	c-0.271,0.143-0.272,0.372-0.003,0.513s0.707,0.141,0.979-0.002l1.01-0.528C25.997,38.872,25.998,38.643,25.729,38.501z
	 M23.2,39.825c-0.269-0.142-0.708-0.141-0.979,0.001l-1.01,0.529c-0.271,0.142-0.273,0.372-0.003,0.513
	c0.27,0.141,0.708,0.14,0.979-0.002l1.009-0.529C23.468,40.195,23.47,39.966,23.2,39.825z M20.671,41.148
	c-0.27-0.141-0.708-0.14-0.979,0.002l-1.01,0.528c-0.271,0.142-0.272,0.371-0.002,0.512c0.269,0.141,0.708,0.141,0.979-0.001
	l1.01-0.529C20.94,41.52,20.941,41.289,20.671,41.148z M18.143,42.473c-0.27-0.141-0.708-0.141-0.979,0.001l-1.01,0.528
	c-0.271,0.143-0.272,0.372-0.002,0.513c0.27,0.142,0.707,0.141,0.979-0.001l1.01-0.528C18.412,42.844,18.413,42.613,18.143,42.473z
	 M15.614,43.796c-0.269-0.141-0.708-0.141-0.979,0.001l-1.01,0.529c-0.271,0.143-0.273,0.373-0.003,0.513
	c0.27,0.141,0.708,0.141,0.979-0.002l1.009-0.529C15.882,44.166,15.884,43.938,15.614,43.796z M13.085,45.12
	c-0.27-0.142-0.707-0.141-0.979,0.001l-1.01,0.529c-0.271,0.142-0.272,0.371-0.002,0.512c0.269,0.141,0.708,0.141,0.979-0.001
	l1.01-0.529C13.354,45.49,13.355,45.261,13.085,45.12z M10.558,46.443c-0.27-0.141-0.708-0.141-0.979,0.002l-1.01,0.528
	c-0.271,0.142-0.273,0.371-0.003,0.512c0.27,0.142,0.708,0.141,0.979-0.001l1.01-0.529C10.826,46.813,10.828,46.584,10.558,46.443z
	 M7.977,47.794c-0.27-0.141-0.708-0.14-0.979,0.002l-1.01,0.528c-0.271,0.143-0.272,0.371-0.002,0.513
	c0.27,0.141,0.708,0.14,0.979-0.002l1.011-0.53C8.244,48.164,8.246,47.936,7.977,47.794z M41.769,32.486l-0.869-0.455
	c-0.306-0.161-0.805-0.16-1.114,0.002l-0.875,0.458c-0.308,0.161-0.309,0.423-0.002,0.583l0.869,0.455
	c0.307,0.16,0.805,0.159,1.114-0.002l0.875-0.458C42.074,32.908,42.075,32.646,41.769,32.486z M38.362,34.852l0.875-0.458
	c0.308-0.162,0.31-0.422,0.003-0.583l-0.868-0.455c-0.307-0.161-0.806-0.16-1.115,0.002l-0.875,0.457
	c-0.308,0.162-0.31,0.423-0.003,0.584l0.869,0.455C37.555,35.014,38.054,35.013,38.362,34.852z M36.711,35.134l-0.869-0.455
	c-0.307-0.161-0.806-0.16-1.115,0.002l-0.874,0.458c-0.309,0.161-0.31,0.422-0.003,0.582l0.868,0.456
	c0.307,0.16,0.806,0.16,1.115-0.003l0.875-0.457C37.017,35.555,37.019,35.294,36.711,35.134z M34.183,36.457l-0.869-0.455
	c-0.307-0.16-0.806-0.16-1.114,0.001l-0.875,0.458c-0.309,0.162-0.31,0.423-0.003,0.583l0.869,0.455
	c0.306,0.161,0.805,0.16,1.114-0.002l0.874-0.458C34.488,36.879,34.49,36.618,34.183,36.457z M28.793,38.368l0.869,0.455
	c0.307,0.161,0.805,0.16,1.114-0.001l0.875-0.458c0.308-0.161,0.31-0.422,0.002-0.583l-0.868-0.455
	c-0.308-0.16-0.806-0.159-1.114,0.002l-0.875,0.458C28.488,37.947,28.487,38.208,28.793,38.368z M26.265,39.693l0.868,0.455
	c0.307,0.161,0.806,0.16,1.114-0.002l0.875-0.458c0.309-0.161,0.31-0.422,0.003-0.583l-0.869-0.455
	c-0.307-0.161-0.805-0.16-1.114,0.002l-0.874,0.457C25.959,39.271,25.958,39.532,26.265,39.693z M23.736,41.016l0.869,0.455
	c0.307,0.162,0.806,0.161,1.115-0.001l0.874-0.458c0.309-0.162,0.31-0.423,0.003-0.584l-0.869-0.455
	c-0.307-0.16-0.806-0.16-1.114,0.002l-0.875,0.458C23.431,40.595,23.43,40.855,23.736,41.016z M21.208,42.34l0.869,0.455
	c0.307,0.16,0.806,0.159,1.114-0.002l0.875-0.457c0.309-0.163,0.31-0.424,0.003-0.584L23.2,41.297
	c-0.307-0.16-0.806-0.16-1.114,0.002l-0.875,0.458C20.902,41.918,20.901,42.179,21.208,42.34z M18.679,43.663l0.87,0.455
	c0.306,0.16,0.805,0.16,1.114-0.001l0.875-0.458c0.308-0.162,0.31-0.423,0.003-0.584l-0.869-0.455
	c-0.307-0.161-0.806-0.16-1.114,0.002l-0.874,0.458C18.374,43.242,18.372,43.503,18.679,43.663z M16.151,44.987l0.869,0.455
	c0.306,0.161,0.805,0.16,1.114-0.001l0.875-0.458c0.308-0.162,0.31-0.423,0.003-0.583l-0.869-0.455
	c-0.307-0.161-0.806-0.16-1.114,0.002l-0.875,0.457C15.845,44.565,15.844,44.827,16.151,44.987z M16.482,45.723l-0.869-0.455
	c-0.307-0.16-0.805-0.159-1.114,0.002l-0.874,0.458c-0.31,0.161-0.311,0.423-0.004,0.583l0.869,0.454
	c0.307,0.161,0.806,0.161,1.114-0.001l0.875-0.458C16.788,46.145,16.789,45.883,16.482,45.723z M11.093,47.634l0.869,0.455
	c0.306,0.161,0.806,0.16,1.114-0.002l0.875-0.458c0.308-0.161,0.31-0.422,0.003-0.583l-0.87-0.455
	c-0.306-0.16-0.805-0.159-1.114,0.002l-0.875,0.458C10.788,47.213,10.786,47.474,11.093,47.634z M7.39,49.573l0.87,0.454
	c0.306,0.161,0.805,0.16,1.114-0.001l1.996-1.045c0.309-0.162,0.311-0.423,0.004-0.583l-0.869-0.455
	c-0.307-0.16-0.806-0.159-1.115,0.002l-1.996,1.045C7.084,49.151,7.083,49.412,7.39,49.573z M44.11,33.712l-0.869-0.455
	c-0.307-0.161-0.806-0.16-1.114,0.002l-1.997,1.045c-0.309,0.162-0.311,0.422-0.003,0.583l0.869,0.455
	c0.307,0.161,0.806,0.16,1.114-0.002l1.996-1.045C44.415,34.134,44.417,33.873,44.11,33.712z M40.46,35.624l-0.87-0.455
	c-0.306-0.16-0.805-0.16-1.114,0.001l-0.875,0.458c-0.308,0.161-0.31,0.423-0.003,0.584l0.869,0.455
	c0.307,0.159,0.806,0.159,1.114-0.003l0.875-0.458C40.765,36.045,40.766,35.783,40.46,35.624z M37.927,37.53
	c0.309-0.162,0.311-0.422,0.004-0.583l-0.869-0.455c-0.307-0.161-0.806-0.16-1.114,0.002l-0.875,0.458
	c-0.308,0.162-0.31,0.422-0.004,0.583l0.87,0.455c0.307,0.16,0.805,0.159,1.114-0.002L37.927,37.53z M35.399,38.854
	c0.309-0.162,0.31-0.423,0.004-0.583l-0.869-0.455c-0.307-0.161-0.806-0.16-1.114,0.001l-0.874,0.458
	c-0.309,0.161-0.311,0.422-0.004,0.583l0.869,0.454c0.307,0.161,0.806,0.16,1.114-0.001L35.399,38.854z M30.891,39.142l-0.875,0.457
	c-0.308,0.162-0.31,0.423-0.003,0.583l0.87,0.455c0.306,0.161,0.805,0.16,1.114-0.002l0.875-0.458
	c0.309-0.161,0.311-0.422,0.003-0.582l-0.869-0.455C31.699,38.979,31.199,38.98,30.891,39.142z M28.417,40.437l-0.983,0.515
	c-0.278,0.146-0.28,0.381-0.003,0.526l0.976,0.512c0.277,0.145,0.728,0.144,1.007-0.002l0.982-0.514
	c0.278-0.147,0.28-0.383,0.003-0.527l-0.976-0.512C29.146,40.29,28.695,40.291,28.417,40.437z M25.888,41.76l-0.982,0.515
	c-0.279,0.146-0.281,0.382-0.003,0.527l0.976,0.51c0.277,0.146,0.727,0.145,1.006-0.001l0.982-0.514
	c0.279-0.146,0.281-0.382,0.003-0.527l-0.976-0.511C26.618,41.614,26.167,41.614,25.888,41.76z M23.359,43.084l-0.981,0.514
	c-0.279,0.146-0.28,0.382-0.003,0.527l0.976,0.511c0.277,0.145,0.728,0.145,1.007-0.002l0.981-0.513
	c0.279-0.146,0.28-0.383,0.003-0.527l-0.977-0.511C24.088,42.938,23.638,42.938,23.359,43.084z M20.83,44.408l-0.982,0.514
	c-0.279,0.146-0.28,0.382-0.003,0.526l0.976,0.511c0.277,0.145,0.729,0.145,1.007-0.002l0.982-0.513
	c0.279-0.146,0.28-0.382,0.003-0.528l-0.976-0.511C21.56,44.261,21.109,44.262,20.83,44.408z M18.302,45.731l-0.982,0.514
	c-0.279,0.146-0.28,0.382-0.003,0.527l0.977,0.511c0.277,0.145,0.728,0.145,1.006-0.002l0.982-0.514
	c0.279-0.146,0.281-0.382,0.003-0.526l-0.976-0.512C19.032,45.585,18.581,45.586,18.302,45.731z M16.771,48.605l0.981-0.514
	c0.279-0.147,0.281-0.382,0.003-0.527l-0.976-0.511c-0.277-0.146-0.727-0.145-1.006,0.002l-0.982,0.513
	c-0.279,0.146-0.28,0.382-0.003,0.527l0.976,0.511C16.041,48.752,16.492,48.751,16.771,48.605z M14.242,49.929l0.982-0.514
	c0.279-0.146,0.28-0.383,0.003-0.527l-0.976-0.51c-0.277-0.146-0.728-0.145-1.007,0.001l-0.981,0.514
	c-0.279,0.146-0.281,0.382-0.003,0.527l0.976,0.511C13.512,50.075,13.964,50.075,14.242,49.929z M9.678,50.771l0.976,0.51
	c0.277,0.146,0.729,0.145,1.007-0.001l0.981-0.514c0.279-0.146,0.281-0.382,0.003-0.527l-0.976-0.511
	c-0.277-0.145-0.729-0.145-1.008,0.001l-0.981,0.515C9.402,50.39,9.401,50.626,9.678,50.771z M46.506,34.966l-0.976-0.51
	c-0.278-0.145-0.728-0.144-1.006,0.001l-3.171,1.66c-0.279,0.146-0.28,0.382-0.003,0.527l0.976,0.511
	c0.277,0.145,0.729,0.144,1.007-0.001l3.17-1.66C46.782,35.347,46.783,35.112,46.506,34.966z M41.789,37.436l-0.976-0.512
	c-0.277-0.145-0.729-0.144-1.007,0.002l-0.982,0.514c-0.279,0.146-0.28,0.382-0.003,0.526l0.976,0.511
	c0.278,0.145,0.729,0.145,1.008-0.002l0.982-0.514C42.065,37.816,42.066,37.58,41.789,37.436z M39.26,38.759l-0.976-0.51
	c-0.277-0.145-0.728-0.145-1.007,0.001l-0.981,0.514c-0.279,0.146-0.28,0.382-0.003,0.527l0.976,0.511
	c0.277,0.146,0.728,0.145,1.007-0.001l0.981-0.515C39.536,39.141,39.537,38.904,39.26,38.759z M36.732,40.083l-0.976-0.512
	c-0.277-0.145-0.728-0.144-1.006,0.002l-0.983,0.514c-0.279,0.146-0.28,0.382-0.002,0.527l0.976,0.512
	c0.277,0.145,0.728,0.145,1.007-0.002l0.982-0.514C37.007,40.463,37.009,40.228,36.732,40.083z M33.218,42.448l0.983-0.514
	c0.279-0.146,0.28-0.383,0.002-0.527l-0.976-0.511c-0.277-0.145-0.728-0.145-1.007,0.002l-0.982,0.514
	c-0.279,0.146-0.28,0.383-0.003,0.527l0.976,0.511C32.488,42.595,32.939,42.594,33.218,42.448z M30.689,43.771l0.982-0.513
	c0.279-0.146,0.28-0.383,0.003-0.527l-0.976-0.512c-0.277-0.145-0.727-0.144-1.006,0.002l-0.981,0.515
	c-0.279,0.146-0.28,0.382-0.003,0.527l0.976,0.51C29.96,43.917,30.411,43.917,30.689,43.771z M28.161,45.095l0.982-0.514
	c0.279-0.146,0.28-0.382,0.003-0.528l-0.976-0.51c-0.277-0.146-0.728-0.145-1.007,0.001l-0.982,0.514
	c-0.279,0.146-0.28,0.382-0.003,0.528l0.976,0.51C27.431,45.242,27.882,45.241,28.161,45.095z M25.632,46.418l0.982-0.514
	c0.279-0.146,0.281-0.382,0.003-0.526l-0.976-0.511c-0.277-0.145-0.729-0.144-1.007,0.001l-0.982,0.515
	c-0.279,0.146-0.28,0.381-0.003,0.526l0.977,0.511C24.903,46.564,25.354,46.564,25.632,46.418z M23.104,47.742l0.981-0.514
	c0.279-0.146,0.281-0.382,0.003-0.528l-0.976-0.51c-0.277-0.145-0.727-0.145-1.006,0.002l-0.982,0.514
	c-0.279,0.146-0.28,0.382-0.003,0.527l0.976,0.511C22.374,47.889,22.825,47.888,23.104,47.742z M20.575,49.065l0.982-0.514
	c0.278-0.146,0.28-0.383,0.003-0.527l-0.976-0.511c-0.277-0.145-0.728-0.144-1.007,0.002l-0.982,0.514
	c-0.279,0.146-0.281,0.382-0.003,0.527l0.976,0.511C19.845,49.213,20.296,49.212,20.575,49.065z M19.032,49.349l-0.976-0.511
	c-0.277-0.145-0.728-0.145-1.007,0.002l-0.981,0.513c-0.279,0.146-0.281,0.383-0.003,0.527l0.976,0.511
	c0.277,0.145,0.728,0.145,1.006-0.001l0.982-0.515C19.308,49.729,19.31,49.494,19.032,49.349z M12.021,51.997l0.976,0.511
	c0.277,0.145,0.728,0.145,1.007-0.002l2.497-1.307c0.279-0.146,0.28-0.382,0.003-0.526l-0.976-0.512
	c-0.277-0.145-0.728-0.144-1.007,0.002l-2.497,1.308C11.745,51.615,11.744,51.852,12.021,51.997z M48.839,36.188l-0.846-0.442
	c-0.313-0.165-0.822-0.164-1.138,0.001l-4.498,2.354c-0.315,0.166-0.317,0.433-0.003,0.596l0.845,0.443
	c0.313,0.163,0.823,0.163,1.137-0.002l4.499-2.355C49.15,36.618,49.152,36.352,48.839,36.188z M42.663,39.42l-0.846-0.443
	c-0.313-0.164-0.822-0.163-1.137,0.002l-0.851,0.445c-0.315,0.165-0.317,0.432-0.003,0.595l0.846,0.443
	c0.313,0.164,0.821,0.163,1.137-0.002l0.851-0.445C42.975,39.852,42.976,39.584,42.663,39.42z M40.134,40.744l-0.845-0.443
	c-0.313-0.163-0.823-0.163-1.138,0.002L37.3,40.749c-0.314,0.164-0.316,0.431-0.003,0.595l0.846,0.443
	c0.314,0.165,0.823,0.163,1.138-0.002l0.851-0.445C40.446,41.174,40.447,40.907,40.134,40.744z M37.605,42.067l-0.846-0.442
	c-0.313-0.164-0.822-0.164-1.137,0.002l-0.851,0.445c-0.315,0.165-0.316,0.432-0.003,0.596l0.845,0.443
	c0.313,0.163,0.823,0.162,1.137-0.002l0.851-0.446C37.917,42.498,37.919,42.231,37.605,42.067z M35.077,43.392l-0.846-0.443
	c-0.313-0.164-0.823-0.163-1.137,0.002l-0.852,0.445c-0.315,0.165-0.316,0.432-0.003,0.596l0.846,0.443
	c0.313,0.163,0.822,0.163,1.137-0.002l0.851-0.445C35.389,43.822,35.39,43.555,35.077,43.392z M32.549,44.715l-0.846-0.442
	c-0.313-0.164-0.822-0.163-1.137,0.001l-0.852,0.446c-0.314,0.164-0.316,0.431-0.003,0.595l0.845,0.443
	c0.313,0.164,0.823,0.163,1.138-0.002l0.852-0.446C32.86,45.146,32.862,44.879,32.549,44.715z M30.02,46.038l-0.846-0.442
	c-0.313-0.164-0.821-0.163-1.137,0.001l-0.851,0.446c-0.315,0.165-0.317,0.432-0.003,0.595l0.846,0.443
	c0.313,0.164,0.822,0.163,1.137-0.002l0.851-0.446C30.332,46.469,30.333,46.202,30.02,46.038z M27.491,47.362l-0.845-0.442
	c-0.313-0.165-0.822-0.164-1.138,0.001l-0.851,0.446c-0.315,0.165-0.317,0.432-0.004,0.596l0.847,0.442
	c0.313,0.164,0.822,0.163,1.137-0.001l0.851-0.446C27.804,47.793,27.805,47.526,27.491,47.362z M24.963,48.686l-0.846-0.443
	c-0.313-0.164-0.822-0.163-1.138,0.002l-0.851,0.445c-0.315,0.165-0.316,0.432-0.004,0.595l0.846,0.443
	c0.313,0.165,0.823,0.164,1.138-0.002l0.851-0.445C25.274,49.116,25.276,48.85,24.963,48.686z M22.435,50.009l-0.847-0.442
	c-0.313-0.164-0.823-0.163-1.137,0.001L19.6,50.014c-0.315,0.166-0.316,0.432-0.003,0.596l0.846,0.442
	c0.313,0.164,0.823,0.163,1.137-0.001l0.851-0.445C22.746,50.439,22.747,50.173,22.435,50.009z M19.906,51.333L19.06,50.89
	c-0.313-0.164-0.823-0.163-1.137,0.002l-0.852,0.446c-0.315,0.166-0.316,0.432-0.003,0.596l0.846,0.442
	c0.313,0.164,0.822,0.163,1.137-0.002l0.851-0.445C20.217,51.763,20.219,51.497,19.906,51.333z M14.483,53.286l0.845,0.443
	c0.314,0.165,0.823,0.163,1.138-0.002l0.852-0.445c0.314-0.166,0.316-0.431,0.003-0.596l-0.845-0.442
	c-0.313-0.164-0.823-0.163-1.137,0.002l-0.852,0.446C14.172,52.855,14.17,53.122,14.483,53.286z M47.221,38.601l0.845,0.442
	c0.313,0.165,0.823,0.164,1.137-0.001l1.974-1.033c0.314-0.164,0.316-0.432,0.003-0.596l-0.846-0.442
	c-0.313-0.165-0.822-0.164-1.137,0.001l-1.973,1.034C46.909,38.17,46.908,38.437,47.221,38.601z M44.692,39.924l0.847,0.443
	c0.313,0.164,0.821,0.163,1.137-0.002l0.851-0.446c0.315-0.165,0.317-0.431,0.003-0.595l-0.846-0.442
	c-0.313-0.164-0.822-0.163-1.137,0.002l-0.851,0.446C44.38,39.494,44.379,39.761,44.692,39.924z M42.164,41.248l0.846,0.443
	c0.313,0.164,0.822,0.163,1.138-0.002l0.851-0.445c0.315-0.165,0.316-0.432,0.003-0.596l-0.846-0.442
	c-0.313-0.165-0.822-0.164-1.137,0.002l-0.851,0.445C41.853,40.817,41.851,41.084,42.164,41.248z M24.463,50.514l0.846,0.443
	c0.313,0.163,0.823,0.162,1.137-0.002l16.023-8.388c0.315-0.165,0.316-0.432,0.003-0.596l-0.846-0.442
	c-0.313-0.164-0.822-0.163-1.137,0.002l-16.022,8.387C24.152,50.083,24.151,50.35,24.463,50.514z M21.935,51.837l0.845,0.443
	c0.313,0.164,0.823,0.163,1.138-0.002l0.851-0.446c0.315-0.165,0.317-0.431,0.004-0.595l-0.846-0.443
	c-0.313-0.164-0.823-0.163-1.137,0.001l-0.852,0.446C21.624,51.406,21.623,51.673,21.935,51.837z M19.406,53.16l0.846,0.443
	c0.313,0.164,0.823,0.163,1.137-0.002l0.852-0.445c0.314-0.165,0.316-0.432,0.004-0.595l-0.846-0.443
	c-0.313-0.163-0.823-0.163-1.138,0.002l-0.85,0.445C19.095,52.73,19.093,52.997,19.406,53.16z M16.825,54.513l0.846,0.442
	c0.313,0.164,0.822,0.163,1.137-0.002l0.851-0.445c0.315-0.165,0.317-0.432,0.004-0.596l-0.845-0.443
	c-0.313-0.164-0.823-0.163-1.138,0.002l-0.852,0.446C16.514,54.082,16.512,54.348,16.825,54.513z"/>
<path fill="#A8CEED" d="M3.014,47.64L36.51,30.095c1.296-0.679,2.348-2.5,2.348-4.067V2.202c0-1.567-1.052-2.289-2.348-1.609
	L3.014,18.138c-1.297,0.679-2.348,2.5-2.348,4.068V46.03C0.666,47.599,1.717,48.319,3.014,47.64z"/>
<path fill="#0C52A4" d="M2.711,46.415L35.85,29.06c1.044-0.602,1.69-1.803,1.69-3.032V2.087c0-0.292-0.35-0.473-0.627-0.325
	c-0.033,0.018-0.058,0.031-0.074,0.039L3.673,19.173c-1.242,0.649-1.688,1.803-1.688,3.033V46.09c0,0.312,0.372,0.508,0.671,0.354
	C2.681,46.431,2.699,46.422,2.711,46.415z"/>
<path d="M1.985,22.206V46.09c0,0.312,0.372,0.508,0.671,0.354c0.024-0.013,0.043-0.022,0.055-0.029L35.85,29.06
	c1.044-0.602,1.69-1.803,1.69-3.032V2.087c0-0.292-0.35-0.473-0.627-0.325c-0.033,0.018-0.058,0.031-0.074,0.039L3.673,19.173
	C2.431,19.822,1.985,20.976,1.985,22.206z M2.248,22.206c0-0.917,0.271-2.153,1.558-2.826l33.24-17.412
	c0.024-0.013,0.05-0.02,0.077-0.02c0.074,0,0.153,0.054,0.153,0.139v23.94c0,1.171-0.615,2.282-1.558,2.826L2.525,46.236
	c-0.029,0.015-0.06,0.023-0.091,0.023c-0.09,0-0.187-0.064-0.187-0.168V22.206z"/>
<path fill="#4292CF" d="M2.349,17.816L35.844,0.272c0.514-0.269,0.988-0.318,1.374-0.182c0.049,0.017,0.704,0.332,0.75,0.355
	l0.002,0.001c-0.4-0.176-0.907-0.143-1.46,0.146L3.014,18.138c-1.297,0.679-2.348,2.5-2.348,4.068V46.03
	c0,0.978,0.41,1.626,1.032,1.811c-0.05,0.002-0.113-0.015-0.206-0.064c-0.03-0.016-0.74-0.379-0.769-0.396
	C0.278,47.097,0,46.516,0,45.709V21.885C0,20.317,1.052,18.496,2.349,17.816z"/>
<path fill="#519FD7" d="M2.349,17.816L35.844,0.272c0.514-0.269,0.988-0.318,1.374-0.182c0.049,0.017,0.704,0.332,0.75,0.355
	l0.002,0.001c-0.4-0.176-0.907-0.143-1.46,0.146L3.014,18.138L2.349,17.816z"/>
<path fill="#FFFFFF" d="M2.901,18.086L36.397,0.542c0.532-0.279,1.021-0.318,1.414-0.164c-0.335-0.048-0.721,0.026-1.132,0.24
	L3.183,18.163c-1.297,0.679-2.348,2.5-2.348,4.068v23.825c0,0.925,0.367,1.552,0.934,1.773c-0.725-0.104-1.215-0.78-1.215-1.85
	V22.154C0.553,20.587,1.604,18.765,2.901,18.086z"/>
</svg>
